<?xml version="1.0" encoding="UTF-8"?>
<svg width="1200pt" height="1200pt" version="1.1" viewBox="0 0 1200 1200" xmlns="http://www.w3.org/2000/svg">
 <path d="m912.52 150h-537.52c-13.828 0-24.984 11.203-24.984 24.984 0 13.828 11.156 25.031 24.984 25.031h537.52c66.984 0 128.86 35.719 162.37 93.75 33.469 57.984 33.469 129.47 0 187.5-33.516 57.984-95.391 93.75-162.37 93.75h-302.16l57.328-57.328c9.5156-9.7969 9.375-25.453-0.28125-35.109s-25.266-9.75-35.062-0.23438l-99.984 99.984v-0.046875c-9.75 9.7969-9.75 25.641 0 35.438l99.984 99.938c9.7969 9.5156 25.406 9.375 35.016-0.28125 9.6562-9.6562 9.7969-25.219 0.32812-35.062l-57.328-57.328h302.16c84.844 0 163.22-45.234 205.69-118.73 42.422-73.5 42.422-164.02 0-237.52-42.469-73.453-120.84-118.73-205.69-118.73z"/>
 <path d="m287.48 624.98h162.52c13.828 0 24.984-11.156 24.984-24.984s-11.156-24.984-24.984-24.984h-162.52c-62.25 0.046875-121.97 24.562-166.4 68.203-44.391 43.641-69.891 102.94-71.062 165.19v4.125c0 0.42188 0 0.89062 0.046875 1.3125l-0.046875-0.046875c1.1719 63 26.953 123.05 71.859 167.21 44.953 44.156 105.38 68.953 168.37 69h749.39l-57.328 57.328c-4.7812 4.6406-7.5469 11.062-7.5938 17.766-0.046875 6.7031 2.5781 13.125 7.3125 17.859 4.7344 4.7344 11.203 7.3594 17.906 7.3125 6.6562-0.046876 13.078-2.7656 17.719-7.5938l99.984-99.984h0.046875c9.75-9.7969 9.75-25.594 0-35.344l-100.03-100.03c-9.7969-9.5156-25.406-9.375-35.062 0.28125s-9.7969 25.266-0.28125 35.062l57.328 57.328h-749.39c-50.203-0.046876-98.344-19.922-133.97-55.266-35.625-35.391-55.875-83.391-56.297-133.6 0.42188-49.453 20.391-96.75 55.5-131.63s82.547-54.422 132-54.516z"/>
 <path d="m174.98 300c50.578 0 96.141-30.469 115.5-77.156 19.359-46.734 8.6719-100.5-27.094-136.22-35.766-35.766-89.531-46.453-136.22-27.094-46.734 19.312-77.156 64.922-77.156 115.45 0.046875 69 55.969 124.92 124.97 125.02zm0-200.02c30.328 0 57.703 18.281 69.328 46.312 11.578 28.031 5.1562 60.281-16.266 81.75-21.469 21.422-53.719 27.844-81.75 16.266-28.031-11.625-46.312-39-46.312-69.328 0.046875-41.391 33.609-74.953 75-75z"/>
</svg>
